<svg viewBox="0 0 500 500" xmlns="http://www.w3.org/2000/svg"><g fill="#0090ff" fill-rule="evenodd"><path d="m452.47 395.98c-15.676 21.74-34.75 40.814-56.49 56.49l-38.689-22.337c-17.392 10.36-36.192 18.147-55.816 23.12l-11.562 43.152c-26.457 4.2883-53.432 4.2883-79.889.0l-11.562-43.152c-19.624-4.9721-38.424-12.759-55.816-23.12l-38.689 22.337c-21.74-15.675-40.814-34.75-56.49-56.49l22.337-38.689c-10.36-17.392-18.148-36.192-23.12-55.816l-43.152-11.563c-4.2883-26.457-4.2883-53.432.0-79.889l43.152-11.563c4.9721-19.624 12.759-38.424 23.12-55.816l-22.337-38.689c15.676-21.74 34.75-40.814 56.49-56.49l38.689 22.337c17.392-10.36 36.192-18.147 55.816-23.12l11.562-43.152c26.457-4.2883 53.432-4.2883 79.889.0l11.562 43.152c19.624 4.9721 38.424 12.759 55.816 23.12l38.689-22.337c21.74 15.675 40.814 34.75 56.49 56.49l-22.337 38.689c10.36 17.392 18.148 36.192 23.12 55.816l43.152 11.563c4.2883 26.457 4.2883 53.432.0 79.889l-43.152 11.563c-4.9721 19.624-12.759 38.424-23.12 55.816l22.337 38.689zm-372.26-146.01c-.016922 60.662 32.336 116.72 84.868 147.06s117.26 30.336 169.79.0c52.532-30.336 84.885-86.397 84.868-147.06.016923-60.662-32.336-116.72-84.868-147.06-52.532-30.336-117.26-30.336-169.79.0-52.532 30.336-84.885 86.397-84.868 147.06z"/><path d="m140.12 148.13c44.521-48.023 115.08-61.558 174.21-33.42 59.132 28.138 93.132 91.425 83.949 156.26h-79.889l54.365 64.789c-15.534 22.232-36.812 39.829-61.565 50.914l-81.195-96.764v108.51c-34.461-4.6361-66.235-21.116-89.875-46.615v-203.68zm129.82 1.9776h-39.944v79.889h39.944c22.061.0 39.944-17.884 39.944-39.944.0-22.061-17.884-39.944-39.944-39.944z"/></g></svg>